<svg width="14" height="13" viewBox="0 0 14 13" fill="none" xmlns="http://www.w3.org/2000/svg">
<path fill-rule="evenodd" clip-rule="evenodd" d="M10.2928 0.323242C11.1868 0.323242 12.0468 0.676576 12.6795 1.31058C13.3128 1.94324 13.6668 2.79658 13.6668 3.68991V8.95658C13.6668 10.8166 12.1535 12.3232 10.2928 12.3232H3.70683C1.84616 12.3232 0.333496 10.8166 0.333496 8.95658V3.68991C0.333496 1.82991 1.8395 0.323242 3.70683 0.323242H10.2928ZM11.3535 4.68324L11.4068 4.62991C11.5662 4.43657 11.5662 4.15657 11.3995 3.96324C11.3068 3.86391 11.1795 3.80324 11.0468 3.78991C10.9068 3.78257 10.7735 3.82991 10.6728 3.92324L7.66683 6.32324C7.28016 6.64391 6.72616 6.64391 6.3335 6.32324L3.3335 3.92324C3.12616 3.76991 2.8395 3.78991 2.66683 3.96991C2.48683 4.14991 2.46683 4.43657 2.6195 4.63657L2.70683 4.72324L5.74016 7.08991C6.1135 7.38324 6.56616 7.54324 7.04016 7.54324C7.51283 7.54324 7.9735 7.38324 8.34616 7.08991L11.3535 4.68324Z" fill="#A9CF46"/>
</svg>
