<svg width="71" height="71" viewBox="0 0 71 71" fill="none" xmlns="http://www.w3.org/2000/svg">
<path d="M61.989 16.9866C61.8104 17.2545 61.8328 17.5782 61.7658 17.8796C60.9291 21.1728 57.9503 23.6176 54.5364 23.7739C54.2463 23.785 54.1125 23.8967 53.9897 24.1311C53.6885 24.7228 53.3873 25.3144 53.0637 25.8949C52.7514 26.4754 52.2828 26.8103 51.5911 26.788C50.9217 26.7656 50.4866 26.4307 50.1965 25.8502C50.1742 25.8056 50.1407 25.7498 50.1073 25.7051C49.7614 25.08 49.6164 24.1757 49.0586 23.8743C48.4896 23.5729 47.6528 23.785 46.9276 23.785C46.1467 23.785 45.3657 23.7962 44.5959 23.785C43.9935 23.7739 43.6365 23.4613 43.6365 22.9478C43.6365 22.4343 44.0047 22.1105 44.5959 22.0994C46.2471 22.0994 47.8983 22.0994 49.5494 22.0994C49.9957 22.0994 50.2746 22.2891 50.4754 22.6799C50.8436 23.4055 51.2229 24.1199 51.6469 24.9349C52.015 24.2539 52.372 23.6511 52.6621 23.0148C52.9633 22.3338 53.4096 22.0882 54.1682 22.0882C58.787 22.077 61.7435 17.0982 59.6015 13.0013C59.5234 12.8561 59.4341 12.711 59.356 12.5659C59.144 12.1082 59.3002 11.6505 59.713 11.4272C60.1147 11.204 60.5498 11.3044 60.8175 11.7398C61.3642 12.6105 61.7324 13.5483 61.8886 14.5641C61.8997 14.6646 61.9555 14.7651 62.0001 14.8655C61.989 15.58 61.989 16.2833 61.989 16.9866Z" fill="#058A51" stroke="white" stroke-width="0.5"/>
<path d="M61.9888 57.0853C61.5984 57.9225 60.8955 58.2016 60.0141 58.3355C57.6713 58.6928 55.3172 58.9607 52.9521 58.983C52.238 58.9942 51.881 58.7263 51.8699 58.1793C51.8587 57.5988 52.2157 57.3197 52.9632 57.3085C55.3173 57.2415 57.6489 57.0071 59.9695 56.6387C60.2261 56.5941 60.3935 56.5048 60.3265 56.2034C60.3265 56.181 60.3265 56.1699 60.3265 56.1475C60.3265 55.3549 60.5273 54.473 60.2596 53.7809C59.9918 53.0888 59.1216 52.7092 58.5526 52.1734C58.4076 52.0394 58.2291 51.9166 58.0952 51.7715C57.7828 51.4143 57.7605 51.0124 58.0506 50.6663C58.3407 50.3091 58.7758 50.1863 59.1328 50.4877C60.1257 51.3473 61.2748 52.0506 62 53.2004C61.9889 54.4842 61.9888 55.7791 61.9888 57.0853Z" fill="#058A51" stroke="white" stroke-width="0.5"/>
<path d="M23.6997 64.9888C23.2423 64.6539 23.1307 64.2074 23.1419 63.6604C23.1753 62.4548 23.153 61.2603 23.153 60.0546C23.153 59.3737 23.4654 58.9941 24.0009 58.983C24.5364 58.9718 24.86 59.3514 24.8711 60.0323C24.8823 61.3273 24.8599 62.6222 24.8823 63.9172C24.8934 64.4195 24.6703 64.7544 24.2575 64.9888C24.079 64.9888 23.8893 64.9888 23.6997 64.9888Z" fill="#058A51" stroke="white" stroke-width="0.5"/>
<path d="M42.6212 64.9888C42.1414 64.7321 41.9852 64.3302 41.9964 63.8055C42.0187 62.5887 41.9964 61.3608 42.0075 60.144C42.0075 59.9988 42.0075 59.8426 42.041 59.6974C42.1303 59.2174 42.4873 58.9272 42.9335 58.983C43.4356 59.0388 43.7145 59.3625 43.7145 59.8314C43.7368 61.2603 43.7257 62.678 43.7257 64.1069C43.7257 64.52 43.4244 64.7321 43.179 65C42.9893 64.9888 42.8108 64.9888 42.6212 64.9888Z" fill="#058A51" stroke="white" stroke-width="0.5"/>
<path d="M15.4104 24.8678C15.7785 24.1422 16.1467 23.4389 16.5037 22.7356C16.7157 22.3114 17.028 22.0993 17.5189 22.1105C18.9135 22.1328 20.2969 22.1105 21.6915 22.1216C22.3162 22.1216 22.7067 22.4565 22.6956 22.9812C22.6844 23.4836 22.3274 23.8073 21.725 23.8073C20.5981 23.8185 19.4602 23.8185 18.3334 23.8073C17.9875 23.7961 17.809 23.9078 17.664 24.2315C17.4074 24.8008 17.095 25.3478 16.8049 25.906C16.5037 26.4753 16.0686 26.8102 15.3992 26.8214C14.7075 26.8326 14.2501 26.4865 13.9377 25.906C13.6253 25.3255 13.3018 24.7339 13.0117 24.1422C12.889 23.8854 12.7216 23.8185 12.4539 23.8073C8.3929 23.6398 5.09057 20.1346 5.00131 16.0823C4.92322 11.8849 8.33711 7.98886 13.0898 8.00002C26.7007 8.02235 40.3117 8.01119 53.9227 8.01119C55.2614 8.01119 56.5221 8.27911 57.7159 8.89309C58.296 9.1945 58.4969 9.62987 58.2626 10.0987C58.0394 10.5676 57.5374 10.7127 56.9796 10.4113C55.9866 9.88663 54.9268 9.70801 53.8223 9.70801C40.3006 9.70801 26.79 9.70801 13.2683 9.70801C10.0106 9.70801 7.58964 11.5611 6.85331 14.5976C6.03888 17.98 8.48215 21.5635 11.9184 22.0547C12.3423 22.1105 12.7663 22.1663 13.1902 22.144C13.6588 22.1216 13.96 22.3226 14.172 22.7245C14.5513 23.4389 14.9418 24.1534 15.3323 24.8678C15.3211 24.8455 15.3546 24.8455 15.4104 24.8678Z" fill="#058A51" stroke="white" stroke-width="0.5"/>
<path d="M19.1144 16.5511C18.4785 16.5511 17.9988 16.0711 17.9988 15.4348C17.9988 14.8097 18.4897 14.3073 19.1144 14.3185C19.728 14.3185 20.2413 14.832 20.2413 15.446C20.2524 16.06 19.7392 16.5511 19.1144 16.5511Z" fill="#058A51" stroke="white" stroke-width="0.5"/>
<path d="M48.9915 15.4349C48.9915 16.0712 48.5229 16.5512 47.887 16.5512C47.2511 16.5512 46.7602 16.0712 46.749 15.446C46.749 14.8432 47.2622 14.3185 47.8758 14.3185C48.5006 14.3185 48.9915 14.7986 48.9915 15.4349Z" fill="#058A51" stroke="white" stroke-width="0.5"/>
<path d="M39.4305 15.4125C39.4417 16.0488 38.9731 16.54 38.3372 16.5512C37.7124 16.5623 37.1992 16.0823 37.1769 15.4683C37.1658 14.8767 37.679 14.3408 38.2814 14.3185C38.9173 14.3073 39.4194 14.7873 39.4305 15.4125Z" fill="#058A51" stroke="white" stroke-width="0.5"/>
<path d="M28.6755 16.5512C28.0395 16.5512 27.5598 16.0712 27.5598 15.4349C27.5598 14.8097 28.0507 14.3185 28.6755 14.3185C29.2891 14.3185 29.8023 14.8432 29.8023 15.446C29.8134 16.0489 29.3002 16.5512 28.6755 16.5512Z" fill="#058A51" stroke="white" stroke-width="0.5"/>
<path d="M49.9622 59.0053C49.8953 56.0247 48.6904 53.5464 46.3921 51.6598C44.317 49.9518 42.2196 48.2662 40.0218 46.7256C38.7945 45.8661 38.1809 44.9395 38.4375 43.4436C38.4933 43.1087 38.5491 42.8854 38.8392 42.6845C41.5725 40.7644 43.0005 38.1299 43.0452 34.7809C43.0786 32.4031 43.0563 30.0253 43.0563 27.6587C43.0563 27.1452 43.034 26.6316 42.9559 26.107C42.5654 23.3496 39.9436 20.9495 37.1545 20.8937C34.8897 20.849 32.625 20.849 30.3714 20.8714C29.8359 20.8825 29.5569 20.7374 29.3226 20.2462C28.7313 19.0294 27.8277 18.8396 26.7678 19.6769C25.0051 21.0723 24.1014 22.9254 24.0791 25.1581C24.0456 28.3508 24.0568 31.5435 24.0791 34.7362C24.0791 35.6628 24.1907 36.5782 24.4807 37.4712C24.6704 38.0517 25.0609 38.3196 25.5294 38.1857C26.0538 38.0294 26.2658 37.6052 26.0984 36.9912C25.8864 36.2321 25.7972 35.473 25.7972 34.6916C25.8084 33.3408 25.7972 31.9789 25.7972 30.6281C25.7972 29.8802 25.7972 29.9025 26.567 29.7909C28.3967 29.5118 30.2486 29.3555 32.1006 29.2773C35.0348 29.1657 37.9466 29.4113 40.8473 29.8132C41.2713 29.869 41.4051 30.0365 41.394 30.483C41.3605 31.9119 41.4052 33.3408 41.3717 34.7697C41.2713 40.2509 36.0835 43.9348 30.985 42.1598C29.702 41.7133 28.6309 40.9542 27.7049 39.9495C27.3145 39.5253 26.8459 39.5141 26.4777 39.8602C26.1207 40.1951 26.1096 40.6751 26.4777 41.0993C26.6451 41.3003 26.8459 41.4677 27.0132 41.6686C27.426 42.1598 28.2182 42.3384 28.3855 42.9636C28.5529 43.5887 28.3967 44.292 28.4301 44.9618C28.4524 45.3414 28.3074 45.5646 28.0173 45.7879C25.6075 47.641 23.2089 49.5053 20.8214 51.3807C18.3 53.3567 16.9501 55.9465 16.9054 59.1727C16.8831 60.7356 16.9166 62.2873 16.8831 63.8502C16.872 64.3637 17.0282 64.7321 17.4633 65C17.6529 65 17.8314 65 18.0211 65C18.4562 64.7098 18.6012 64.319 18.5901 63.7944C18.5566 62.332 18.5789 60.8696 18.5789 59.396C18.5901 56.8954 19.4603 54.7297 21.3904 53.1222C23.7556 51.1575 26.2211 49.3267 28.6421 47.4289C29.5569 49.5723 31.0742 50.8561 33.4394 50.8561C35.8046 50.8561 37.3219 49.5834 38.2367 47.4289C40.6688 49.3379 43.1567 51.1798 45.5331 53.1669C47.4297 54.7409 48.2776 56.8843 48.2999 59.3402C48.3111 60.8249 48.3222 62.3096 48.2887 63.7944C48.2776 64.319 48.4226 64.7098 48.8577 65C49.0474 65 49.2259 65 49.4156 65C49.8507 64.7433 50.0068 64.3637 49.9957 63.8502C49.9622 62.2315 50.0068 60.6128 49.9622 59.0053ZM41.3717 27.9154C41.3494 28.2392 41.1597 28.1499 40.9924 28.1275C39.9325 28.0047 38.8615 27.8708 37.8016 27.7591C35.4922 27.5247 33.1828 27.5024 30.8622 27.6363C29.3338 27.7256 27.8054 27.8596 26.2881 28.1275C25.9311 28.1833 25.7526 28.1387 25.786 27.7033C25.8307 27.201 25.7972 26.6986 25.7972 26.2074C25.7972 25.2139 25.7414 24.2092 26.143 23.2491C26.4666 22.49 26.9128 21.8202 27.5153 21.2621C27.7273 21.0611 27.8835 21.0165 27.9839 21.3402C28.3186 22.4342 29.0995 22.6128 30.1371 22.5793C32.3349 22.5124 34.5439 22.5459 36.7529 22.557C39.2185 22.5682 41.6171 24.5441 41.3717 27.9154ZM36.619 46.7703C36.1951 48.3108 34.6331 49.3713 33.0824 49.1704C31.4312 48.9583 30.1817 47.5964 30.1594 45.9442C30.1482 45.2074 30.1594 44.4706 30.1594 43.678C31.5316 44.2027 32.8927 44.359 34.2873 44.2809C34.9902 44.2362 35.6819 44.1022 36.3513 43.8901C36.6748 43.7897 36.7864 43.8008 36.764 44.1692C36.6859 45.04 36.8533 45.9107 36.619 46.7703Z" fill="#058A51" stroke="white" stroke-width="0.5"/>
<path d="M20.2523 48.3444C19.0808 47.6411 18.8354 46.614 19.0027 45.3861C19.025 45.2186 19.025 45.0512 19.0027 44.8837C18.9693 44.6046 19.0808 44.4037 19.2705 44.2028C19.9399 43.5106 20.3973 42.6622 20.5423 41.7245C20.7655 40.3514 20.7766 38.9448 20.5758 37.5717C20.2076 35.0935 18.2329 33.2627 15.8008 33.0506C13.3575 32.8385 11.0593 34.3679 10.3006 36.7456C9.83207 38.208 9.99942 39.7151 10.0775 41.211C10.1221 42.0594 10.3453 42.919 10.9254 43.5106C11.6952 44.3144 11.7621 45.2075 11.6952 46.201C11.6841 46.3126 11.6729 46.4243 11.6952 46.5359C11.8068 47.0829 11.5279 47.4178 11.1374 47.7527C9.39697 49.2263 7.67888 50.7333 5.93846 52.2069C5.35832 52.698 5.06825 53.2785 5.10172 54.0488C5.13519 54.8079 5.10171 55.567 5.11286 56.3261C5.11286 57.4871 5.59261 58.1011 6.71942 58.2797C9.22964 58.6928 11.7398 58.983 14.2835 58.9942C14.8971 58.9942 15.2541 58.7039 15.2653 58.1792C15.2765 57.6769 14.9083 57.3308 14.3282 57.3085C11.9518 57.2527 9.59778 57.0183 7.25491 56.6499C6.8979 56.5941 6.78634 56.4713 6.80865 56.114C6.84212 55.5559 6.85327 54.9977 6.80865 54.4395C6.75287 53.8814 6.976 53.5241 7.39995 53.1669C9.24078 51.6152 11.0593 50.0189 12.889 48.456C13.2794 48.1322 13.458 47.7527 13.4356 47.2503C13.4133 46.7145 13.4245 46.1787 13.4245 45.5982C14.9529 46.0224 15.455 46.0559 16.9834 45.6652C17.3962 45.5647 17.2958 45.8214 17.2623 45.9777C16.9499 47.5629 17.6863 48.6346 18.9469 49.4384C19.0139 49.483 19.0585 49.5388 19.1143 49.5835C19.5606 49.9407 20.0738 49.9295 20.3973 49.55C20.7208 49.2039 20.7097 48.6123 20.2523 48.3444ZM15.2765 44.2586C13.3575 44.1916 11.8403 42.6957 11.7622 40.7979C11.751 40.3514 11.7622 39.9049 11.7622 39.4583C11.7956 38.7774 11.6841 38.0964 11.8737 37.4154C12.3423 35.7409 13.9154 34.58 15.5554 34.7362C17.4297 34.9037 18.7796 36.1986 18.9358 38.0183C19.0251 39.0118 19.0251 40.0165 18.9358 41.0212C18.7685 42.8743 17.1173 44.3256 15.2765 44.2586Z" fill="#058A51" stroke="white" stroke-width="0.5"/>
<path d="M55.7636 44.1246C56.3772 43.4325 56.8234 42.6288 56.9573 41.7245C57.1805 40.2956 57.1916 38.8444 56.9685 37.4043C56.6003 35.06 54.6145 33.2627 52.227 33.0395C49.951 32.8274 47.6974 34.2116 46.8384 36.355C46.2471 37.8508 46.4367 39.4249 46.4702 40.9654C46.4925 41.892 46.7045 42.8297 47.3293 43.4883C48.1214 44.3256 48.1883 45.2633 48.1214 46.2903C48.1102 46.4801 48.1102 46.6587 48.1214 46.8485C48.1437 47.1164 48.0544 47.295 47.8424 47.4736C47.4631 47.7751 47.1061 48.0988 46.7491 48.4225C46.4813 48.6681 46.4144 48.9919 46.5594 49.3379C46.7045 49.6728 46.9611 49.8514 47.3404 49.8514C47.8871 49.8403 49.7614 48.1881 49.8171 47.6411C49.8283 47.496 49.8171 47.3397 49.8171 47.1946C49.8171 46.681 49.8171 46.1564 49.8171 45.6317C51.8588 46.1006 51.9369 46.0112 53.6885 45.6317C53.6885 46.2457 53.6885 46.8485 53.6885 47.4625C53.6885 47.7416 53.7108 48.0206 53.9451 48.2216C54.4359 48.6458 54.9157 49.0923 55.4177 49.483C55.7636 49.7621 56.3103 49.6728 56.5557 49.3268C56.8235 48.9584 56.8346 48.5565 56.4999 48.2216C56.2879 47.9983 56.0202 47.8085 55.7971 47.5853C55.6297 47.4178 55.3285 47.3285 55.3731 46.9936C55.4847 46.0894 55.1388 45.1517 55.5739 44.2809C55.652 44.2251 55.719 44.1805 55.7636 44.1246ZM55.3285 41.211C55.0607 42.9971 53.3761 44.3926 51.6134 44.2586C49.6944 44.1135 48.2218 42.6288 48.1771 40.7756C48.166 40.3514 48.1771 39.9272 48.1771 39.3244C48.1995 38.8667 48.0991 38.2304 48.2441 37.6164C48.6457 35.8638 50.2076 34.647 51.8923 34.7363C53.8112 34.8479 55.2281 36.1875 55.3843 38.1634C55.4512 39.1681 55.4735 40.1951 55.3285 41.211Z" fill="#058A51" stroke="white" stroke-width="0.5"/>
</svg>
