<svg width="72" height="71" viewBox="0 0 72 71" fill="none" xmlns="http://www.w3.org/2000/svg">
<g clip-path="url(#clip0_219_928)">
<path d="M40.8081 10C41.7276 10.5336 42.6472 11.0671 43.5781 11.5894C44.3274 12.0094 44.6906 12.6224 44.6566 13.4852C44.6452 13.9393 44.6225 14.3821 44.6907 14.8362C44.7588 15.2789 44.5544 15.6308 44.1117 15.7444C43.6462 15.8692 43.2602 15.7217 43.0445 15.2449C42.8175 14.734 42.8742 14.2118 42.9083 13.6896C42.9424 13.349 42.8402 13.1333 42.5223 12.9744C41.8752 12.6338 41.2395 12.2591 40.6151 11.8845C40.3994 11.7596 40.2291 11.7029 40.0134 11.8732C39.1733 12.5543 38.197 12.7132 37.1412 12.6224C36.6871 12.5884 36.233 12.5884 35.7789 12.6224C34.7458 12.7132 33.7922 12.543 32.9635 11.8845C32.7592 11.7256 32.5889 11.7369 32.3618 11.8732C31.7147 12.2591 31.0676 12.6451 30.4092 12.9971C30.1481 13.1446 30.0118 13.3036 30.0573 13.6215C30.2162 14.5864 29.9437 15.4379 29.3988 16.2325C29.0923 16.6753 28.8085 17.1521 28.5814 17.6516C28.15 18.5598 27.537 19.2523 26.5947 19.6269C26.3336 19.7291 26.2542 19.9107 26.2542 20.1946C26.2769 20.9438 26.2769 21.7044 26.2542 22.4537C26.2428 22.7375 26.3336 22.9192 26.5947 23.0213C27.5484 23.3846 28.15 24.0885 28.5814 24.9967C28.7858 25.4167 29.0242 25.8254 29.2853 26.2114C29.8643 27.0855 30.2503 27.9937 30.0573 29.0722C30.0118 29.3333 30.1367 29.4809 30.3638 29.6058C31.0222 29.9691 31.6807 30.3437 32.3164 30.741C32.5889 30.9113 32.8046 30.9 33.0316 30.707C33.8263 30.0712 34.7458 29.9009 35.7449 29.9804C36.233 30.0145 36.7325 30.0145 37.2207 29.9804C38.2197 29.9009 39.1279 30.0826 39.9226 30.7183C40.161 30.9 40.3767 30.9 40.6378 30.741C41.2735 30.3437 41.932 29.9691 42.5904 29.6171C42.8175 29.4923 42.931 29.3333 42.8856 29.0722C42.6926 28.0164 43.0672 27.1196 43.6349 26.2568C43.9187 25.8367 44.1798 25.394 44.3955 24.9399C44.8155 24.0771 45.4059 23.4073 46.3141 23.044C46.5979 22.9305 46.7114 22.7602 46.7 22.4423C46.6773 21.6931 46.6773 20.9325 46.7 20.1832C46.7114 19.8994 46.6092 19.7518 46.3595 19.6156C45.8032 19.3091 45.1902 19.082 44.8496 18.4803C44.5544 17.9354 44.6112 17.4813 45.0426 17.1861C45.4626 16.9137 45.8827 16.9931 46.2573 17.4927C46.4957 17.8105 46.859 17.9468 47.1882 18.1057C48.0964 18.5484 48.4824 19.2523 48.4483 20.24C48.4143 21.0346 48.4483 21.8293 48.437 22.6126C48.437 23.4187 48.1305 24.0658 47.3812 24.4063C46.5979 24.7583 46.0757 25.3032 45.7351 26.0752C45.6216 26.3363 45.474 26.5747 45.315 26.8017C44.7701 27.5623 44.509 28.3797 44.6112 29.3333C44.6793 30.0031 44.3501 30.548 43.7711 30.9C42.9083 31.4222 42.0228 31.933 41.1373 32.4212C40.547 32.7504 39.9112 32.7731 39.3777 32.3758C38.6057 31.7968 37.7543 31.6492 36.8347 31.7287C36.5963 31.7514 36.3466 31.7514 36.0968 31.7287C35.1886 31.6492 34.3599 31.7855 33.5992 32.3531C33.0203 32.7845 32.3618 32.7391 31.7374 32.3758C30.9087 31.899 30.08 31.4222 29.2512 30.934C28.6723 30.5935 28.2749 30.0712 28.3544 29.4128C28.4679 28.3457 28.116 27.4715 27.537 26.6314C27.3554 26.3703 27.1964 26.0865 27.0602 25.8027C26.7877 25.1897 26.345 24.7696 25.732 24.5085C24.8465 24.1339 24.4832 23.43 24.5059 22.4764C24.5286 21.6704 24.5172 20.853 24.5059 20.047C24.5059 19.2182 24.8124 18.5598 25.5844 18.2192C26.3336 17.89 26.8331 17.3678 27.1737 16.6412C27.31 16.3574 27.4575 16.0736 27.6505 15.8125C28.1841 15.0632 28.4225 14.2685 28.343 13.3376C28.2749 12.6224 28.6382 12.0775 29.2626 11.7142C30.2616 11.1239 31.2266 10.5676 32.2029 10C32.5435 10 32.884 10 33.2246 10C33.622 10.1135 34.0079 10.2611 34.3485 10.4995C34.621 10.6925 34.9275 10.7606 35.2567 10.7493C35.7903 10.7379 36.3125 10.7266 36.8461 10.7493C37.6634 10.7833 38.4695 10.772 39.162 10.2157C39.3436 10.0681 39.6047 10.1135 39.7977 10C40.1269 10 40.4675 10 40.8081 10Z" fill="#058A51" stroke="white" stroke-width="0.6"/>
<path d="M63.8312 38.8808C62.2986 38.404 60.6184 39.4144 60.187 41.0719C59.9372 42.0368 59.6988 43.0018 59.4945 43.9781C58.6544 47.8493 56.5996 50.8237 53.069 52.7195C52.5922 52.9806 52.1267 53.1055 51.6385 52.7536C51.1163 52.379 51.1617 51.8567 51.2639 51.3232C51.491 50.029 51.718 48.7348 51.9224 47.4293C52.0359 46.7368 51.8202 46.1237 51.3434 45.6129C50.299 44.4663 48.5393 44.6252 47.6652 45.9761C46.1893 48.2466 44.7362 50.5398 43.2717 52.8217C43.1582 53.0033 43.1015 53.2077 42.7722 53.0488C42.0003 52.6741 41.3191 52.8785 40.7288 53.4801C39.8887 54.3202 39.0486 55.1603 38.2085 56.0004C36.8576 57.3514 36.8576 57.3514 38.2085 58.7023C41.1715 61.6653 44.1345 64.6283 47.0975 67.5913C47.6311 68.1249 48.0398 68.1703 48.5166 67.7048C49.6519 66.5923 50.7758 65.4797 51.877 64.3331C52.4105 63.7769 52.524 63.0957 52.1608 62.4146C51.9791 62.0854 52.0813 61.9945 52.3538 61.8356C53.2506 61.3247 54.1134 60.7571 54.9421 60.1214C55.453 59.7354 55.5665 59.2132 55.2487 58.8045C54.9194 58.3844 54.4426 58.3504 53.9091 58.7477C53.0009 59.4175 52.0472 60.0192 51.0709 60.5868C50.8325 60.723 50.6736 60.7685 50.4465 60.5301C48.4939 58.5547 46.5299 56.6021 44.5659 54.6381C44.3616 54.4338 44.3729 54.3089 44.5205 54.0705C46.0304 51.7319 47.5289 49.3819 49.0275 47.0319C49.2205 46.7368 49.4248 46.4529 49.8449 46.6005C50.2876 46.7595 50.2649 47.1341 50.1968 47.4974C49.9924 48.6667 49.7881 49.8246 49.561 50.9939C49.3226 52.2427 49.561 53.3326 50.6168 54.1159C51.6726 54.8879 52.7738 54.8311 53.8977 54.2067C57.1899 52.413 59.4604 49.7792 60.6525 46.2145C61.1633 44.682 61.4471 43.0813 61.8558 41.526C62.0261 40.8789 62.3894 40.5269 62.9457 40.4702C63.4792 40.4134 63.8425 40.754 63.763 41.2762C63.6495 42.0822 63.5473 42.8769 63.3884 43.6716C62.4007 48.5645 60.1302 52.7649 56.645 56.3296C56.1909 56.7951 56.1455 57.2946 56.5201 57.6692C56.9175 58.0666 57.4056 58.0098 57.8938 57.5103C61.4358 53.9115 63.7744 49.6544 64.9323 44.7387C65.1367 43.8759 65.1708 42.9791 65.4773 42.139C65.4773 41.6054 65.4773 41.0832 65.4773 40.5496C65.1594 39.8004 64.6939 39.1533 63.8312 38.8808ZM50.3671 62.9027C50.4465 62.9822 50.5147 63.073 50.6055 63.1638C50.5374 63.2433 50.4919 63.3114 50.4238 63.3795C49.6519 64.1515 48.8685 64.9121 48.1079 65.7068C47.8014 66.0247 47.6879 65.7295 47.5403 65.5819C45.5082 63.5612 43.4761 61.5291 41.4553 59.497C40.8423 58.8839 40.2406 58.2596 39.6049 57.6579C39.3665 57.4308 39.3097 57.3059 39.5822 57.0448C40.3428 56.3296 41.0694 55.5917 41.7959 54.8538C41.9889 54.6495 42.1024 54.6154 42.3295 54.8424C44.9973 57.533 47.6879 60.2122 50.3671 62.9027Z" fill="#058A51" stroke="white" stroke-width="0.6"/>
<path d="M35.4838 56.6929C34.3713 55.5576 33.2587 54.4451 32.1235 53.3326C31.624 52.8444 30.9882 52.6968 30.3525 52.992C29.9665 53.1736 29.853 53.026 29.6827 52.7422C28.2636 50.5058 26.8219 48.2693 25.3915 46.0329C24.926 45.3063 24.2903 44.8636 23.3934 44.8749C21.9289 44.8749 20.8845 46.0556 21.1002 47.5201C21.2932 48.8029 21.5316 50.0744 21.7586 51.3572C21.8495 51.8794 21.8835 52.3789 21.3954 52.7422C20.9186 53.0942 20.4531 52.992 19.965 52.7309C17.2744 51.3118 15.3558 49.1889 14.2319 46.3735C13.5621 44.6933 13.2897 42.8996 12.8469 41.1627C12.5972 40.1863 12.0522 39.4598 11.144 39.0397C9.62281 38.3359 7.98805 39.0511 7.57936 40.595C7.44313 41.1286 7.5453 41.6735 7.61341 42.2184C8.16969 46.6459 9.77039 50.6761 12.3588 54.3089C14.5839 57.4195 17.3652 59.9284 20.6688 61.8583C20.8504 61.9718 21.0661 61.9945 20.8959 62.3351C20.4645 63.1752 20.5893 63.8109 21.2591 64.4807C22.2922 65.5251 23.3366 66.5696 24.3811 67.6027C24.9374 68.1589 25.3347 68.1703 25.8796 67.6254C27.0603 66.4561 28.2296 65.2754 29.3989 64.1061C29.8416 63.652 29.8757 63.1298 29.5011 62.7665C29.1264 62.4146 28.6156 62.4713 28.1615 62.9254C27.2533 63.8336 26.3451 64.7305 25.4369 65.65C25.2325 65.8544 25.1076 65.9452 24.8692 65.6841C24.1427 64.9235 23.3934 64.1742 22.6328 63.4363C22.4057 63.2206 22.4625 63.0957 22.6555 62.9027C25.346 60.2235 28.0252 57.5443 30.7044 54.8651C30.9201 54.6494 31.0337 54.6608 31.238 54.8765C31.9646 55.6258 32.6911 56.3637 33.4404 57.0789C33.7128 57.34 33.6447 57.4649 33.4177 57.6919C32.5208 58.5547 31.6467 59.4402 30.7725 60.3371C30.3639 60.7457 30.3525 61.2225 30.6931 61.5858C31.0564 61.9718 31.5559 61.9605 31.9873 61.5404C33.1566 60.3825 34.3145 59.2245 35.4725 58.0552C35.9039 57.567 35.9152 57.1356 35.4838 56.6929ZM28.3545 54.7516C26.4359 56.6475 24.5287 58.5547 22.6328 60.4733C22.4057 60.7003 22.2468 60.7912 21.9289 60.5982C15.3558 56.727 11.1327 51.1415 9.5774 43.6262C9.41846 42.8769 9.339 42.1049 9.23682 41.333C9.15736 40.7653 9.5774 40.4134 10.145 40.5269C10.7127 40.6404 11.0078 40.9924 11.144 41.5373C11.5641 43.1494 11.8479 44.8068 12.3928 46.3848C13.653 50.0063 16.0029 52.6741 19.4314 54.3883C21.3273 55.3306 23.5296 53.9796 23.541 51.6864C23.3707 50.6988 23.1664 49.5068 22.962 48.3261C22.9053 47.9742 22.8371 47.6222 22.7917 47.2703C22.7463 46.9411 22.8825 46.714 23.1891 46.6005C23.4842 46.4983 23.7113 46.6459 23.8702 46.873C24.0859 47.1795 24.2789 47.4974 24.4833 47.8152C25.8001 49.87 27.117 51.9362 28.4453 53.9796C28.6496 54.3202 28.6156 54.4905 28.3545 54.7516Z" fill="#058A51" stroke="white" stroke-width="0.6"/>
<path d="M29.6033 33.3294C29.6374 32.6142 29.3081 32.1374 28.7178 31.7514C27.628 31.0589 27.049 30.0372 26.9809 28.743C26.9468 28.0619 26.7084 27.551 26.1067 27.2104C25.5505 26.8926 25.0055 26.5633 24.4379 26.2568C23.9157 25.973 23.4048 26.0071 22.8826 26.2795C21.6792 26.9039 20.4532 26.9039 19.2385 26.2909C18.6708 26.0071 18.1373 25.9616 17.581 26.2909C17.0928 26.5747 16.616 26.8698 16.1165 27.131C15.4013 27.5056 15.0721 28.0732 15.1402 29.1176C14.8791 30.0031 14.5045 31.0703 13.4714 31.706C12.8016 32.1147 12.4496 32.6142 12.4837 33.3975C12.5064 33.9425 12.4951 34.4874 12.4837 35.0437C12.461 35.7362 12.7902 36.2016 13.3578 36.5649C14.459 37.2574 15.0267 38.2905 15.1061 39.5733C15.1515 40.2772 15.3899 40.7994 16.0143 41.1513C16.5252 41.4351 17.0247 41.7189 17.5242 42.0254C18.1146 42.3774 18.6708 42.3433 19.2839 42.0254C20.4532 41.4124 21.6452 41.4124 22.8145 42.0254C23.4048 42.332 23.9497 42.3774 24.5174 42.0481C25.0509 41.7416 25.5959 41.4238 26.1294 41.1172C26.6971 40.788 26.9355 40.2772 26.9695 39.6187C27.0376 38.3132 27.628 37.2801 28.7292 36.5649C29.3081 36.1903 29.6147 35.7362 29.592 35.0323C29.5806 34.4647 29.5692 33.897 29.6033 33.3294ZM27.1966 35.441C26.9241 35.5318 26.7538 35.7816 26.6062 36.0313C26.2203 36.7011 25.8343 37.3596 25.4483 38.0294C25.2439 38.3813 25.1418 38.7673 25.1985 39.1646C25.2553 39.5506 25.0964 39.7663 24.7671 39.9025C24.699 39.9252 24.6309 39.9706 24.5741 40.0161C24.0406 40.4247 23.5184 40.6064 22.928 40.0955C22.701 39.9025 22.3717 39.9025 22.0652 39.9025C21.4408 39.9139 20.8165 39.9252 20.2034 39.9025C19.6698 39.8798 19.193 39.9933 18.773 40.3112C18.5232 40.4929 18.3075 40.5042 18.0578 40.3339C17.8307 40.175 17.581 40.0274 17.3312 39.9139C16.9679 39.7549 16.7977 39.5165 16.8885 39.2214C16.9452 38.6992 16.809 38.3132 16.5933 37.9499C16.2641 37.405 15.9462 36.8487 15.6397 36.2924C15.4013 35.8497 15.0834 35.475 14.618 35.2934C14.2774 35.1572 14.1752 34.9301 14.2206 34.5896C14.232 34.4647 14.2433 34.3284 14.2206 34.1922C14.1298 33.6019 14.2547 33.1364 14.9018 32.9207C15.2083 32.8186 15.3899 32.5234 15.5489 32.2396C15.8895 31.6493 16.2187 31.0589 16.5593 30.4799C16.7977 30.0826 16.9452 29.6626 16.8885 29.1971C16.8431 28.8565 16.9452 28.6181 17.2745 28.4819C17.4448 28.4138 17.615 28.323 17.7626 28.1981C18.1827 27.8462 18.5687 27.8348 19.0114 28.1867C19.2952 28.4138 19.6698 28.4592 20.0331 28.4592C20.6575 28.4592 21.2819 28.4478 21.8949 28.4592C22.4058 28.4706 22.8713 28.3797 23.28 28.0732C23.5524 27.8689 23.8022 27.8348 24.086 28.0619C24.2449 28.1867 24.4266 28.3003 24.6195 28.3684C25.085 28.55 25.278 28.8565 25.1985 29.3674C25.1418 29.7307 25.2893 30.0599 25.4823 30.3778C25.8116 30.9227 26.1294 31.479 26.436 32.0352C26.6857 32.5007 27.0036 32.8753 27.4917 33.0797C27.7869 33.2045 27.9345 33.3975 27.8777 33.7268C27.855 33.8743 27.855 34.0333 27.8777 34.1809C27.9685 34.7712 27.8437 35.2253 27.1966 35.441Z" fill="#058A51" stroke="white" stroke-width="0.6"/>
<path d="M60.5049 33.1478C60.5049 32.671 60.346 32.1828 59.9259 31.9899C58.9837 31.5698 58.6091 30.707 58.1322 29.9123C57.9393 29.5945 57.803 29.2766 57.8711 29.0041C57.9393 28.1073 57.6327 27.5283 56.9175 27.1423C56.418 26.8812 55.9412 26.5861 55.4531 26.3022C54.8854 25.973 54.3292 26.0071 53.7388 26.3136C52.5695 26.9039 51.3661 26.9039 50.1968 26.3249C49.5838 26.0184 49.0275 25.9844 48.4372 26.3363C47.949 26.6201 47.4722 26.9153 46.9727 27.1877C46.2916 27.5397 46.0645 28.1073 46.0191 28.8452C45.951 30.0826 45.372 31.0817 44.3162 31.7628C43.7259 32.1374 43.374 32.6029 43.408 33.3181C43.4307 33.8971 43.4307 34.4874 43.408 35.0777C43.3853 35.7816 43.7145 36.2357 44.2935 36.599C45.3834 37.2915 45.9623 38.3246 46.0305 39.6074C46.0645 40.2885 46.3029 40.8108 46.8933 41.1513C47.4155 41.4578 47.9377 41.7417 48.4599 42.0482C49.0502 42.4001 49.6065 42.3547 50.2195 42.0368C51.3889 41.4351 52.5809 41.4238 53.7502 42.0482C54.3178 42.3547 54.8514 42.4001 55.4076 42.0822C55.9639 41.7644 56.5202 41.4465 57.0651 41.1286C57.6441 40.7994 57.8598 40.2772 57.8938 39.6301C57.962 38.3246 58.5523 37.2915 59.6648 36.5876C60.2211 36.2357 60.5276 35.7816 60.5163 35.1118C60.5049 34.4306 60.5163 33.7949 60.5049 33.1478ZM58.1436 35.4183C57.8825 35.5205 57.6895 35.7475 57.5419 35.9973C57.1559 36.6784 56.7472 37.3596 56.3499 38.0407C56.1342 38.4154 56.0661 38.8127 56.1115 39.2328C56.1456 39.5393 56.032 39.7323 55.7596 39.8458C55.6347 39.8912 55.5212 39.9593 55.419 40.0388C54.9195 40.4361 54.42 40.561 53.8751 40.1069C53.6367 39.9139 53.3188 39.8912 53.0123 39.9026C52.3538 39.9139 51.6954 39.9253 51.0369 39.9026C50.5715 39.8912 50.1287 39.9707 49.7654 40.2545C49.4476 40.5042 49.1638 40.4929 48.8572 40.2545C48.721 40.1523 48.5734 40.0728 48.4145 40.0047C47.9604 39.8117 47.6993 39.5279 47.7901 38.983C47.8469 38.6197 47.6993 38.2791 47.5063 37.9726C47.1884 37.4164 46.8592 36.8714 46.5527 36.3152C46.3029 35.8497 45.9851 35.4637 45.4855 35.2707C45.1677 35.1459 45.0541 34.9415 45.0996 34.6123C45.1109 34.5442 45.1109 34.4647 45.0996 34.3852C45.0201 33.6927 45.0769 33.091 45.8829 32.8299C46.144 32.7391 46.2916 32.4553 46.4392 32.2056C46.7797 31.6152 47.109 31.0362 47.4495 30.4459C47.6879 30.0486 47.8355 29.6285 47.7787 29.1631C47.7333 28.8111 47.8469 28.5841 48.1761 28.4592C48.2783 28.4252 48.3804 28.357 48.4713 28.2889C48.9708 27.9143 49.4589 27.744 50.0152 28.2208C50.2536 28.4252 50.6055 28.4365 50.9348 28.4365C51.5364 28.4365 52.1381 28.4252 52.7398 28.4365C53.262 28.4479 53.7502 28.3684 54.1816 28.0392C54.454 27.8348 54.7151 27.8235 54.9876 28.0392C55.1806 28.1868 55.3963 28.3116 55.6233 28.4025C56.0093 28.5614 56.2023 28.7998 56.1001 29.1404C56.0547 29.6399 56.1683 30.0145 56.3726 30.3664C56.7018 30.9341 57.0424 31.5017 57.3489 32.0807C57.576 32.5121 57.8711 32.864 58.3366 33.0456C58.6885 33.1819 58.8248 33.4203 58.768 33.7949C58.7453 33.9425 58.7453 34.1014 58.768 34.249C58.8929 34.8166 58.7112 35.214 58.1436 35.4183Z" fill="#058A51" stroke="white" stroke-width="0.6"/>
<path d="M36.5055 16.1531C33.6901 16.1417 31.3742 18.4576 31.3515 21.2957C31.3288 24.1112 33.622 26.4271 36.4715 26.4498C39.3096 26.4725 41.6028 24.2133 41.6596 21.3525C41.705 18.5371 39.3437 16.1531 36.5055 16.1531ZM36.4601 24.7242C34.587 24.7128 33.0884 23.1916 33.0884 21.2844C33.0884 19.3885 34.5983 17.9013 36.5055 17.9013C38.4128 17.9013 39.8999 19.3999 39.8999 21.3071C39.9113 23.2257 38.39 24.7356 36.4601 24.7242Z" fill="#058A51" stroke="white" stroke-width="0.6"/>
<path d="M21.0435 30.3323C18.9206 30.3437 17.2177 32.0579 17.2291 34.1808C17.2404 36.3265 18.9319 37.9953 21.0776 37.9839C23.2005 37.9726 24.9034 36.247 24.8693 34.1127C24.8466 32.0125 23.1437 30.3323 21.0435 30.3323ZM21.0549 36.2811C19.8855 36.2811 18.9433 35.3274 18.9546 34.1581C18.9546 32.9775 19.8969 32.0693 21.0889 32.0806C22.2696 32.092 23.1664 33.0229 23.1551 34.2149C23.1324 35.3501 22.2015 36.2811 21.0549 36.2811Z" fill="#058A51" stroke="white" stroke-width="0.6"/>
<path d="M51.9789 30.3324C49.8673 30.3097 48.1304 32.0353 48.1304 34.1582C48.1304 36.2697 49.8105 37.9613 51.9108 37.984C54.0677 37.9953 55.7593 36.3379 55.782 34.2036C55.7933 32.0693 54.1131 30.3551 51.9789 30.3324ZM51.9675 36.2811C50.7982 36.2811 49.856 35.3502 49.856 34.1695C49.856 32.9889 50.7755 32.0807 51.9675 32.0807C53.1482 32.0807 54.0677 33.0229 54.0564 34.2036C54.045 35.3388 53.1141 36.2697 51.9675 36.2811Z" fill="#058A51" stroke="white" stroke-width="0.6"/>
</g>
<defs>
<clipPath id="clip0_219_928">
<rect width="58" height="58.0227" fill="white" transform="translate(7.5 10)"/>
</clipPath>
</defs>
</svg>
