<svg width="11" height="20" viewBox="0 0 11 20" fill="none" xmlns="http://www.w3.org/2000/svg">
<path d="M6.83366 10.875H6.33366V11.375V18.6666H3.66699V11.375V10.875H3.16699H0.916992V8.20831H3.16699H3.66699V7.70831V5.14165C3.66699 3.85561 4.07156 2.91787 4.70941 2.3008C5.35024 1.68084 6.27962 1.33331 7.42308 1.33331C8.2541 1.33331 9.05049 1.37737 9.54199 1.41588V3.54165H8.66699C7.68961 3.54165 7.01673 3.77755 6.64809 4.32497C6.47482 4.58228 6.40097 4.86545 6.36664 5.12451C6.33362 5.37363 6.33364 5.63426 6.33366 5.85954L6.33366 5.87498V7.70831V8.20831H6.83366H9.4016L8.73494 10.875H6.83366Z" stroke="#A9CF46"/>
</svg>
