<svg width="60" height="62" viewBox="0 0 60 62" fill="none" xmlns="http://www.w3.org/2000/svg">
<path d="M58.9877 5.75569C58.7669 6.05211 58.4971 6.27443 58.2028 6.49674C55.8237 8.28761 53.4445 10.0908 51.0777 11.8817C50.8692 12.0422 50.673 12.2399 50.4032 12.2769C49.9126 12.351 49.5079 12.1905 49.2994 11.7088C49.0664 11.1777 49.2504 10.7578 49.6919 10.4243C50.8201 9.57209 51.9361 8.73223 53.0644 7.88003C54.4256 6.84256 55.7991 5.81745 57.1604 4.77998C57.9575 4.17479 58.3745 4.23655 58.9999 5.01465C58.9877 5.26166 58.9877 5.50868 58.9877 5.75569Z" fill="#058A51" stroke="white" stroke-width="0.6"/>
<path d="M58.9875 18.5758C58.4356 19.2675 58.1413 19.3539 57.3196 18.9958C55.198 18.0818 53.0765 17.1678 50.9671 16.2415C50.2558 15.9328 50.0106 15.3646 50.3171 14.7965C50.5624 14.3395 51.053 14.1419 51.568 14.3519C53.8368 15.3152 56.1055 16.3033 58.3743 17.279C58.6441 17.4025 58.7913 17.6495 58.9875 17.8471C58.9875 18.0818 58.9875 18.3288 58.9875 18.5758Z" fill="#058A51" stroke="white" stroke-width="0.6"/>
<path d="M49.2013 2.66796C48.9928 3.94009 48.7598 5.36043 48.5268 6.76842C48.441 7.31186 48.3429 7.85529 48.2325 8.39873C48.0853 9.11507 47.6806 9.42384 47.0552 9.33739C46.5033 9.26328 46.1722 8.8063 46.2703 8.10231C46.4665 6.73137 46.7118 5.36043 46.9326 3.9895C47.0307 3.42136 47.1165 2.86558 47.2269 2.29744C47.3618 1.66755 47.7665 1.37113 48.3551 1.44524C48.8947 1.50699 49.2136 1.92692 49.2013 2.66796Z" fill="#058A51" stroke="white" stroke-width="0.6"/>
<path d="M53.7512 29.9756C51.4456 26.752 49.1401 23.5161 46.8223 20.3049C46.6015 19.9961 46.5402 19.8479 46.8836 19.5515C48.7844 17.9089 49.1033 15.0558 47.6562 12.9932C46.1968 10.9183 43.4375 10.2637 41.2669 11.5235C40.8745 11.7458 40.6905 11.7335 40.4207 11.3506C38.1765 8.16408 35.9077 4.98993 33.6512 1.80343C32.8663 0.704211 32.1673 0.728912 31.4806 1.90224C29.2731 5.66923 27.0657 9.43622 24.7479 13.1414C23.2762 15.5005 21.8782 17.9089 20.0632 20.0208C17.0464 23.5408 13.7475 26.7767 10.4853 30.0497C10.3504 30.1732 10.2033 30.2843 10.0561 30.3955C7.76283 32.0628 5.44502 33.6932 3.17626 35.3852C1.07919 36.9538 0.0490542 39.1028 0 41.61C0.0245271 42.0917 0.0122636 42.4746 0.0613178 42.8327C1.00561 48.5758 7.11287 51.4165 12.0428 48.3906C12.3739 48.193 12.5088 48.2547 12.705 48.5388C13.6493 49.8974 14.6182 51.2436 15.5747 52.5899C17.1567 54.8006 18.7265 57.0238 20.3207 59.2222C21.8659 61.3589 24.7111 61.6059 26.4525 59.7657C27.8015 58.3453 27.8996 56.3074 26.6855 54.5907C24.2819 51.2066 21.8659 47.8348 19.4623 44.4507C18.7265 43.4256 18.7265 43.4132 19.867 42.8574C22.4546 41.573 25.0177 40.2761 27.6298 39.041C30.3033 37.7689 33.0012 36.5585 35.8832 35.8175C41.5612 34.3601 47.2883 33.1497 53.0154 31.9023C54.1559 31.6429 54.4257 30.9266 53.7512 29.9756ZM42.3216 13.2403C44.2592 12.2398 46.5402 13.6725 46.5402 15.8833C46.5647 16.7108 46.2336 17.3778 45.6818 17.983C45.4242 18.267 45.3016 18.1929 45.1054 17.9089C44.1488 16.5379 43.18 15.167 42.1867 13.8207C41.9782 13.512 42.0027 13.4132 42.3216 13.2403ZM11.1353 46.6121C10.142 47.3161 9.01372 47.6001 7.99584 47.6372C5.28559 47.6001 3.10268 45.9698 2.30555 43.5491C1.52068 41.1654 2.31781 38.5594 4.35356 37.0402C6.37705 35.5334 8.44959 34.076 10.4853 32.5816C10.7429 32.3963 10.8655 32.4087 11.0495 32.668C13.1711 35.6693 15.3049 38.6582 17.451 41.6471C17.635 41.9064 17.5737 41.9929 17.3529 42.1534C15.2681 43.6355 13.2079 45.1423 11.1353 46.6121ZM25.1526 55.8875C25.6186 56.5421 25.6554 57.2708 25.2997 57.9748C24.9563 58.6417 24.3677 58.9752 23.8894 58.9876C22.8225 58.9999 22.2952 58.58 21.8537 57.9624C19.4745 54.603 17.0709 51.2436 14.6795 47.8842C14.0418 46.9949 14.0418 46.9949 14.9248 46.3527C15.587 45.871 16.2492 45.4017 16.8992 44.92C17.1322 44.7471 17.2426 44.7718 17.402 45.0188C19.9896 48.6376 22.5772 52.2564 25.1526 55.8875ZM44.7129 31.6429C40.5433 32.6063 36.3247 33.3967 32.29 34.8541C28.5986 36.1757 25.128 38.0159 21.6084 39.7327C20.9707 40.0415 20.3207 40.3502 19.6953 40.6837C19.4377 40.8196 19.2783 40.8319 19.0944 40.5602C16.9115 37.4725 14.7163 34.3848 12.5211 31.3218C12.2758 30.976 12.5088 30.8525 12.6805 30.6796C15.1332 28.2094 17.5492 25.7145 19.9528 23.195C22.9451 20.0455 25.1526 16.328 27.4091 12.6598C29.1873 9.75733 30.9042 6.84255 32.6701 3.89071C38.9123 12.6474 45.1299 21.3794 51.4089 30.1855C49.1033 30.6796 46.9081 31.1365 44.7129 31.6429Z" fill="#058A51" stroke="white" stroke-width="0.6"/>
</svg>
