<svg width="18" height="18" viewBox="0 0 18 18" fill="none" xmlns="http://www.w3.org/2000/svg">
<path d="M13.1996 4.19998H14.3996M5.39961 0.599976H12.5996C13.8726 0.599976 15.0935 1.10569 15.9937 2.00586C16.8939 2.90604 17.3996 4.12694 17.3996 5.39998V12.6C17.3996 13.873 16.8939 15.0939 15.9937 15.9941C15.0935 16.8943 13.8726 17.4 12.5996 17.4H5.39961C4.12657 17.4 2.90567 16.8943 2.0055 15.9941C1.10532 15.0939 0.599609 13.873 0.599609 12.6V5.39998C0.599609 4.12694 1.10532 2.90604 2.0055 2.00586C2.90567 1.10569 4.12657 0.599976 5.39961 0.599976ZM8.99961 12.6C8.04483 12.6 7.12916 12.2207 6.45403 11.5456C5.77889 10.8704 5.39961 9.95476 5.39961 8.99998C5.39961 8.0452 5.77889 7.12952 6.45403 6.45439C7.12916 5.77926 8.04483 5.39998 8.99961 5.39998C9.95439 5.39998 10.8701 5.77926 11.5452 6.45439C12.2203 7.12952 12.5996 8.0452 12.5996 8.99998C12.5996 9.95476 12.2203 10.8704 11.5452 11.5456C10.8701 12.2207 9.95439 12.6 8.99961 12.6Z" stroke="#A9CF46"/>
</svg>
