<svg width="23" height="24" viewBox="0 0 23 24" fill="none" xmlns="http://www.w3.org/2000/svg">
<path d="M12.4851 3.74093C13.1844 3.73824 13.8837 3.74527 14.5829 3.76201L14.7688 3.76872C14.9834 3.77638 15.1952 3.78597 15.4511 3.79747C16.4708 3.84538 17.1665 4.00638 17.777 4.24309C18.4095 4.48651 18.9423 4.81618 19.4752 5.34901C19.9623 5.8278 20.3394 6.40696 20.5801 7.04622C20.8168 7.65668 20.9778 8.35338 21.0257 9.37305C21.0372 9.62797 21.0468 9.84072 21.0545 10.0554L21.0602 10.2413C21.0773 10.9401 21.0846 11.6391 21.0823 12.3381L21.0832 13.0531V14.3085C21.0856 15.0078 21.0782 15.7071 21.0612 16.4063L21.0554 16.5922C21.0478 16.8068 21.0382 17.0186 21.0267 17.2745C20.9788 18.2942 20.8159 18.9899 20.5801 19.6004C20.3402 20.2403 19.963 20.82 19.4752 21.2986C18.9959 21.7857 18.4165 22.1627 17.777 22.4035C17.1665 22.6402 16.4708 22.8012 15.4511 22.8491C15.1952 22.8606 14.9834 22.8702 14.7688 22.8779L14.5829 22.8836C13.8837 22.9007 13.1844 22.908 12.4851 22.9057L11.7702 22.9066H10.5157C9.81636 22.909 9.11703 22.9016 8.4179 22.8846L8.23199 22.8788C8.00449 22.8706 7.77704 22.861 7.54965 22.8501C6.52998 22.8022 5.83423 22.6393 5.22282 22.4035C4.58331 22.1633 4.00405 21.7862 3.52561 21.2986C3.03786 20.8197 2.66045 20.2401 2.41969 19.6004C2.18299 18.9899 2.02199 18.2942 1.97407 17.2745C1.9634 17.0471 1.95381 16.8197 1.94532 16.5922L1.94053 16.4063C1.92286 15.7071 1.91487 15.0078 1.91657 14.3085V12.3381C1.91389 11.6391 1.92092 10.9401 1.93765 10.2413L1.94436 10.0554C1.95203 9.84072 1.96161 9.62797 1.97311 9.37305C2.02103 8.35242 2.18203 7.65763 2.41874 7.04622C2.65963 6.40664 3.03778 5.82764 3.52657 5.34997C4.00468 4.86194 4.58357 4.48418 5.22282 4.24309C5.83423 4.00638 6.52903 3.84538 7.54965 3.79747L8.23199 3.76872L8.4179 3.76393C9.1167 3.74627 9.81571 3.73828 10.5147 3.73997L12.4851 3.74093ZM11.4999 8.53259C10.865 8.52361 10.2347 8.64091 9.6455 8.87766C9.05634 9.11441 8.5201 9.46589 8.06796 9.91169C7.61582 10.3575 7.25679 10.8887 7.01173 11.4744C6.76667 12.0602 6.64047 12.6888 6.64047 13.3238C6.64047 13.9587 6.76667 14.5874 7.01173 15.1731C7.25679 15.7589 7.61582 16.2901 8.06796 16.7359C8.5201 17.1817 9.05634 17.5332 9.6455 17.7699C10.2347 18.0067 10.865 18.1239 11.4999 18.115C12.7707 18.115 13.9895 17.6101 14.8881 16.7115C15.7867 15.8129 16.2916 14.5941 16.2916 13.3233C16.2916 12.0525 15.7867 10.8337 14.8881 9.93508C13.9895 9.03647 12.7707 8.53259 11.4999 8.53259ZM11.4999 10.4493C11.8818 10.4422 12.2613 10.5114 12.6162 10.6526C12.971 10.7939 13.2942 11.0045 13.5668 11.272C13.8394 11.5396 14.0559 11.8588 14.2038 12.211C14.3516 12.5632 14.4278 12.9413 14.4279 13.3233C14.4279 13.7053 14.3519 14.0834 14.2042 14.4357C14.0564 14.7879 13.84 15.1072 13.5675 15.3748C13.295 15.6425 12.9719 15.8532 12.6171 15.9946C12.2622 16.1359 11.8828 16.2052 11.5009 16.1983C10.7384 16.1983 10.0071 15.8954 9.46793 15.3562C8.92876 14.8171 8.62586 14.0858 8.62586 13.3233C8.62586 12.5608 8.92876 11.8295 9.46793 11.2904C10.0071 10.7512 10.7384 10.4483 11.5009 10.4483L11.4999 10.4493ZM16.5312 7.09509C16.222 7.10747 15.9296 7.23899 15.7152 7.46211C15.5009 7.68523 15.3811 7.98264 15.3811 8.29205C15.3811 8.60146 15.5009 8.89887 15.7152 9.12199C15.9296 9.34511 16.222 9.47663 16.5312 9.48901C16.8489 9.48901 17.1536 9.3628 17.3782 9.13815C17.6029 8.91349 17.7291 8.6088 17.7291 8.29109C17.7291 7.97338 17.6029 7.66869 17.3782 7.44404C17.1536 7.21938 16.8489 7.09318 16.5312 7.09318V7.09509Z" fill="#A9CF46"/>
</svg>
