<svg width="12" height="14" viewBox="0 0 12 14" fill="none" xmlns="http://www.w3.org/2000/svg">
<path fill-rule="evenodd" clip-rule="evenodd" d="M0.333496 6.20167C0.333496 3.13509 2.89608 0.656494 5.99579 0.656494C9.10424 0.656494 11.6668 3.13509 11.6668 6.20167C11.6668 7.74695 11.1048 9.18158 10.1798 10.3975C9.15937 11.7388 7.9016 12.9075 6.48586 13.8248C6.16184 14.0368 5.86941 14.0528 5.5138 13.8248C4.08999 12.9075 2.83222 11.7388 1.8205 10.3975C0.894818 9.18158 0.333496 7.74695 0.333496 6.20167ZM4.12965 6.37433C4.12965 7.40163 4.96794 8.20961 5.99579 8.20961C7.02433 8.20961 7.87068 7.40163 7.87068 6.37433C7.87068 5.35503 7.02433 4.50772 5.99579 4.50772C4.96794 4.50772 4.12965 5.35503 4.12965 6.37433Z" fill="#A9CF46"/>
</svg>
