<svg width="72" height="71" viewBox="0 0 72 71" fill="none" xmlns="http://www.w3.org/2000/svg">
<path d="M62.2716 43.2267C61.9626 42.8942 61.8437 42.6448 62.0101 42.1579C62.4023 41.0296 62.129 39.9727 61.3089 39.0939C60.5008 38.2269 59.4787 37.93 58.3378 38.1913C56.567 38.5951 55.5092 40.4002 56.0084 42.0866C56.5313 43.868 58.3615 44.8062 60.1205 44.1649C60.4295 44.058 60.6077 44.0818 60.8335 44.3193C61.9864 45.5306 61.9507 47.2883 60.679 48.3453C57.9099 50.6611 54.915 52.6087 51.5635 53.9507C48.8657 55.0314 46.0965 55.7677 43.161 55.3046C40.8554 54.9364 39.0846 53.8201 38.1576 51.5874C37.2663 49.4378 37.3851 47.2289 37.8724 45.0318C38.9657 40.1271 41.5328 35.9823 44.706 32.1939C45.74 30.9588 47.7604 31.0538 48.7825 32.277C48.937 32.4552 48.8895 32.5858 48.8181 32.7402C48.5448 33.3221 48.5091 33.9278 48.628 34.5335C48.9607 36.2792 50.7197 37.3956 52.4073 36.9799C54.2257 36.5286 55.2478 34.7947 54.7367 33.0371C54.2494 31.3388 52.3835 30.3887 50.6959 30.9944C50.3156 31.1369 50.1136 31.0301 49.8402 30.7807C48.6755 29.6881 47.285 29.2605 45.7044 29.5931C44.7655 29.7831 43.993 30.2937 43.2561 31.0182C43.2561 30.7213 43.2561 30.5194 43.2561 30.3294C43.2561 26.3747 43.2561 22.4318 43.2561 18.4771C43.2561 16.6364 42.1152 15.4963 40.2731 15.4963C38.3002 15.4963 36.3155 15.4844 34.3426 15.4963C34.0336 15.4963 33.9029 15.4606 33.8791 15.0925C33.8197 13.6436 32.762 12.646 31.312 12.6341C30.4682 12.6223 29.6125 12.6104 28.7687 12.646C28.4241 12.6579 28.3052 12.5273 28.1983 12.2304C27.5565 10.2589 25.8332 8.98821 23.8722 9.00008C21.8875 9.01196 20.1642 10.2946 19.5581 12.2541C19.463 12.5748 19.3204 12.646 19.0233 12.6341C18.1557 12.6223 17.2881 12.6223 16.4205 12.6341C15.0657 12.646 13.9485 13.6436 13.8772 15.0093C13.8535 15.4606 13.6871 15.4963 13.3187 15.4844C11.2983 15.4725 9.28974 15.4606 7.26935 15.4844C5.87884 15.4963 4.77357 16.4701 4.57153 17.824C4.58342 17.9071 4.5953 17.9783 4.5953 18.0615C4.5953 33.5121 4.59531 48.9747 4.58343 64.4253C4.58343 64.8173 4.57153 65.2092 4.57153 65.6129C4.7498 66.8124 5.62929 67.6794 6.81775 67.8575C6.85341 67.8456 6.90094 67.8338 6.9366 67.8338C17.8943 67.8338 28.8519 67.8456 39.8096 67.8456C40.1661 67.8456 40.5227 67.8575 40.8673 67.8575C42.2222 67.6556 43.2086 66.563 43.2086 65.1735C43.2205 62.6914 43.2205 60.1975 43.2086 57.7154C43.2086 57.2998 43.268 57.1216 43.7434 57.1691C45.7519 57.371 47.7129 57.0622 49.6382 56.5041C54.297 55.1621 58.3378 52.6681 61.9864 49.5447C63.9236 47.9652 63.983 45.0675 62.2716 43.2267ZM59.0271 42.5498C58.2902 42.5379 57.7198 41.956 57.7316 41.2315C57.7435 40.519 58.3615 39.9133 59.0627 39.9252C59.7758 39.937 60.3582 40.5427 60.3463 41.2672C60.3463 42.0035 59.7639 42.5616 59.0271 42.5498ZM51.7418 32.6333C52.4905 32.6333 53.0372 33.1915 53.0372 33.9397C53.0372 34.676 52.4667 35.2579 51.7537 35.2698C51.0406 35.2817 50.3869 34.6285 50.3988 33.9159C50.4107 33.2152 51.0287 32.6333 51.7418 32.6333ZM39.4293 55.8627C38.9895 56.2903 38.6092 56.6822 38.2051 57.0503C37.4921 57.6798 36.5532 57.6441 35.9233 56.9791C35.3053 56.3259 35.3053 55.4352 35.947 54.7464C36.2442 54.4258 36.565 54.1407 36.8622 53.8201C37.0404 53.6301 37.1593 53.5469 37.3375 53.832C37.8605 54.6276 38.5617 55.2689 39.4293 55.8627ZM15.7075 15.5794C15.7075 14.6768 15.9214 14.463 16.8127 14.4512C17.8942 14.4512 18.9876 14.4512 20.0692 14.4512C20.8773 14.4512 21.1506 14.178 21.2101 13.3586C21.2933 12.0166 22.4223 10.9002 23.7415 10.8646C25.239 10.829 26.4037 11.8028 26.5701 13.2279C26.6889 14.2849 26.8791 14.4512 27.9606 14.4512C29.0064 14.4512 30.0522 14.4512 31.0981 14.4512C31.8587 14.4512 32.1202 14.7243 32.1202 15.4963C32.1202 16.0901 32.1202 16.6839 32.1202 17.2777C32.1202 18.1565 31.9063 18.3702 31.0506 18.3702C28.6855 18.3702 26.3086 18.3702 23.9435 18.3702C21.5309 18.3702 19.1184 18.3702 16.7177 18.3702C15.9095 18.3702 15.7193 18.1802 15.7075 17.3489C15.7075 16.7551 15.7075 16.1732 15.7075 15.5794ZM41.4496 65.0429C41.4496 65.8267 41.0931 66.1117 40.2255 66.1117C31.1219 66.1117 22.0063 66.1117 12.9027 66.1117C11.12 66.1117 9.34916 66.1117 7.56646 66.1117C6.66323 66.1117 6.378 65.8267 6.378 64.9123C6.378 57.1929 6.378 49.4735 6.378 41.7541C6.378 34.0584 6.378 26.3509 6.378 18.6553C6.378 17.5864 6.6276 17.3489 7.7091 17.3489C9.58688 17.3489 11.4646 17.3608 13.3424 17.337C13.7108 17.337 13.8772 17.3727 13.901 17.824C13.9842 19.2016 15.0776 20.211 16.5038 20.211C21.4478 20.2348 26.3799 20.2348 31.3239 20.211C32.8095 20.1991 33.7959 19.2134 33.9029 17.6933C33.9267 17.3964 34.0217 17.337 34.2832 17.337C36.3155 17.3489 38.3478 17.337 40.3919 17.3489C41.1763 17.3608 41.4615 17.7052 41.4615 18.584C41.4615 22.0399 41.4615 25.4958 41.4615 28.9517C41.4615 30.2106 41.4496 31.4813 41.4734 32.7402C41.4853 33.1677 41.3783 33.524 41.1169 33.8922C38.9182 37.0156 37.1474 40.3527 36.2323 44.0818C35.6262 46.5639 35.436 49.0578 36.2085 51.5399C36.2798 51.7774 36.2442 51.8962 36.0778 52.0506C35.6143 52.5018 35.1389 52.965 34.6992 53.4282C33.6652 54.5208 33.3919 55.7796 33.9385 57.181C34.0574 57.4898 34.0336 57.656 33.784 57.8817C31.1456 60.1737 28.1864 61.8482 24.6685 62.2639C21.4834 62.6439 18.5717 61.682 17.0267 58.8436C16.064 57.0741 15.9689 55.1621 16.2898 53.2144C16.5632 51.528 17.1693 49.9604 17.9655 48.464C18.1438 48.1315 18.2508 48.084 18.5954 48.2859C22.6956 50.7205 27.6991 48.6303 28.8638 44.0105C29.981 39.5808 26.2373 35.1985 21.6736 35.6261C17.8943 35.9705 15.1964 38.987 15.3153 42.7517C15.3628 44.058 15.7669 45.2694 16.5156 46.3382C16.7652 46.6826 16.7652 46.9082 16.5632 47.2527C15.0301 49.9604 14.1149 52.8344 14.3526 55.9815C14.6497 60.1025 17.3357 63.3328 21.5785 63.9741C25.5004 64.5679 28.9945 63.3328 32.2747 61.2901C33.2849 60.6607 34.2119 59.9362 35.0914 59.1405C35.3172 58.9386 35.4717 58.9268 35.745 59.0455C37.1236 59.6274 38.3715 59.3662 39.4649 58.3805C39.976 57.9173 40.4513 57.4066 40.9386 56.9197C41.0575 56.801 41.1763 56.6941 41.3546 56.7653C41.521 56.8366 41.4853 56.991 41.4853 57.1216C41.4615 59.7581 41.4615 62.4064 41.4496 65.0429ZM17.1217 42.4429C17.1217 39.6283 19.3679 37.4075 22.1965 37.4193C24.9775 37.4193 27.2237 39.6877 27.2118 42.4548C27.1999 45.2575 24.93 47.5139 22.1252 47.5021C19.3798 47.4902 17.1217 45.21 17.1217 42.4429Z" fill="#058A51" stroke="white" stroke-width="0.5"/>
<path d="M23.8842 33.0133C19.5225 33.0133 15.149 33.0133 10.7873 33.0133C10.609 33.0133 10.4307 33.0252 10.2525 33.0014C9.71766 32.942 9.34923 32.562 9.36112 32.0751C9.373 31.5882 9.74142 31.22 10.2762 31.1725C10.3951 31.1606 10.5139 31.1725 10.6328 31.1725C19.4868 31.1725 28.3291 31.1725 37.1831 31.1725C37.9319 31.1725 38.324 31.4219 38.4072 31.9326C38.4904 32.467 38.229 32.8708 37.6941 32.9777C37.4802 33.0252 37.2663 33.0133 37.0524 33.0133C32.6551 33.0133 28.2696 33.0133 23.8842 33.0133Z" fill="#058A51" stroke="white" stroke-width="0.5"/>
<path d="M23.9437 29.0111C19.4988 29.0111 15.0539 29.0111 10.6091 29.0111C10.3595 29.0111 10.098 29.0467 9.86034 28.9042C9.5038 28.6904 9.31365 28.3817 9.38495 27.9779C9.45626 27.586 9.69395 27.2891 10.1218 27.2416C10.3357 27.2178 10.5496 27.2059 10.7755 27.2059C19.5226 27.2059 28.2816 27.2059 37.0287 27.2059C37.2426 27.2059 37.4684 27.2059 37.6824 27.2416C38.1577 27.3128 38.4073 27.5978 38.4311 28.0729C38.4549 28.5835 38.1696 28.8804 37.7061 28.9992C37.5397 29.0467 37.3496 29.0111 37.1713 29.0111C32.7502 29.0111 28.3529 29.0111 23.9437 29.0111Z" fill="#058A51" stroke="white" stroke-width="0.5"/>
<path d="M17.0742 24.997C14.8874 24.997 12.6888 24.997 10.502 24.997C9.76517 24.997 9.36108 24.6764 9.36108 24.0944C9.36108 23.5244 9.77704 23.2037 10.5139 23.2037C14.9231 23.2037 19.3204 23.2037 23.7296 23.2037C24.2407 23.2037 24.6329 23.3581 24.7636 23.8807C24.8706 24.2963 24.7399 24.6526 24.3477 24.8901C24.1219 25.0208 23.896 24.997 23.6583 24.997C21.4597 24.997 19.2729 24.997 17.0742 24.997Z" fill="#058A51" stroke="white" stroke-width="0.5"/>
<path d="M22.1965 39.5688C20.5802 39.5569 19.2966 40.8039 19.2848 42.419C19.2729 44.0104 20.5445 45.3287 22.1371 45.3524C23.7177 45.3762 25.025 44.0817 25.0488 42.4903C25.0726 40.8752 23.8128 39.5807 22.1965 39.5688ZM22.1846 43.4879C21.5428 43.4998 21.0912 43.0485 21.0912 42.4309C21.0912 41.8609 21.5666 41.374 22.149 41.3621C22.7432 41.3502 23.2423 41.849 23.2305 42.4547C23.2305 43.0604 22.7907 43.476 22.1846 43.4879Z" fill="#058A51" stroke="white" stroke-width="0.5"/>
</svg>
