<svg width="60" height="66" viewBox="0 0 60 66" fill="none" xmlns="http://www.w3.org/2000/svg">
<path d="M59.431 37.6951C58.7226 34.202 54.2193 32.6958 51.3858 35.7081C49.0836 38.1634 46.6422 40.4795 44.2767 42.8716C43.9605 43.2007 43.8466 43.188 43.5683 42.8083C42.7841 41.7199 41.6836 41.1757 40.33 41.1757C36.7123 41.1757 33.0945 41.1757 29.4893 41.1883C29.0845 41.1883 28.8062 41.0744 28.5279 40.7706C24.2397 36.0878 17.0421 35.8853 12.5009 40.3277C11.3498 41.4541 10.2113 42.6185 9.06018 43.7576C8.73129 44.0866 8.41505 44.6309 8.06086 44.6435C7.64342 44.6688 7.36512 44.0487 7.01093 43.7449C6.97298 43.7196 6.94769 43.6816 6.92239 43.6563C6.26461 43.0108 5.78393 43.0108 5.1388 43.6437C3.94973 44.8334 2.76066 46.0231 1.57159 47.2128C0.736718 48.0481 0.736721 48.4404 1.55895 49.2631C6.70734 54.4143 11.8431 59.5528 16.9915 64.704C17.2445 64.9571 17.5101 65.1849 17.7631 65.4254C18.0161 65.4254 18.2691 65.4254 18.5221 65.4254C19.9894 63.9825 21.4568 62.5524 22.8989 61.0842C23.3416 60.6412 23.3037 60.097 22.8736 59.6161C22.5447 59.2617 22.1905 58.9326 21.8489 58.5909C21.7351 58.477 21.5833 58.3884 21.7731 58.1859C22.7344 57.1481 23.7211 56.2874 25.3023 56.3127C29.9447 56.376 34.5998 56.3001 39.2422 56.3507C42.3413 56.376 44.9092 55.2876 47.0723 53.098C50.4371 49.6808 53.8398 46.3015 57.2426 42.9222C58.2293 41.935 59.1653 40.9478 59.5322 39.543C59.5322 38.9481 59.5322 38.3659 59.5322 37.7711C59.4942 37.7331 59.4436 37.7204 59.431 37.6951ZM20.4322 60.6666C19.7744 61.2867 19.1293 61.9195 18.5221 62.5903C18.2438 62.8941 18.0794 62.8941 17.7884 62.5903C15.1573 59.9325 12.5009 57.2873 9.8571 54.6421C7.84581 52.6297 5.84717 50.6173 3.82323 48.6303C3.51964 48.3265 3.48169 48.1493 3.82323 47.8456C4.46836 47.2507 5.07555 46.6053 5.70803 45.9851C5.80923 45.8838 5.91042 45.7826 6.04956 45.6687C6.17606 45.7952 6.2899 45.8838 6.37845 45.9851C11.0588 50.668 15.7392 55.3635 20.4322 60.0337C20.6725 60.2742 20.6978 60.4134 20.4322 60.6666ZM56.7619 40.4416C52.8785 44.3524 48.995 48.2633 45.0737 52.1235C43.581 53.6043 41.6836 54.2624 39.5964 54.2751C37.117 54.3004 34.6377 54.2751 32.1584 54.2751C29.8435 54.2751 27.5286 54.313 25.2264 54.2624C23.544 54.2244 22.1652 54.8066 21.0141 56.0216C20.1919 56.8823 20.1792 56.8696 19.319 56.009C16.1819 52.8702 13.0575 49.7187 9.89505 46.6053C9.55351 46.2635 9.57881 46.099 9.9077 45.7826C11.2486 44.479 12.5515 43.1374 13.8923 41.8211C17.7758 37.9862 23.8855 38.29 27.3642 42.5046C27.769 42.9855 28.1864 43.188 28.8189 43.188C32.6264 43.1627 36.434 43.1754 40.2288 43.1754C41.3041 43.1754 42.0504 43.7576 42.3034 44.7448C42.5184 45.5548 42.1389 46.4534 41.3926 46.909C40.9878 47.1495 40.5324 47.2128 40.0644 47.2128C35.5485 47.2128 31.0199 47.2128 26.504 47.2128C26.3016 47.2128 26.0739 47.2001 25.8842 47.2634C25.4035 47.4532 25.1505 47.8329 25.2264 48.3518C25.3023 48.8708 25.6185 49.1872 26.1498 49.2125C26.7823 49.2378 27.4148 49.2251 28.0473 49.2251C32.1457 49.2251 36.2442 49.2251 40.3427 49.2251C42.2781 49.2251 43.834 47.9722 44.2767 46.0737C44.34 45.7826 44.4665 45.5421 44.6942 45.327C47.4771 42.5552 50.26 39.7708 53.0429 36.9864C53.8145 36.2143 54.7253 35.9485 55.7499 36.265C56.7366 36.5687 57.3185 37.2901 57.4829 38.3026C57.6094 39.138 57.3438 39.8594 56.7619 40.4416Z" fill="#058A51" stroke="white" stroke-width="0.6"/>
<path d="M57.1033 30.7721C55.345 22.9631 50.7912 17.4955 43.4038 14.4073C41.2787 13.5214 39.0397 13.0911 36.7501 12.9139C36.5983 12.9012 36.3833 13.0151 36.3074 12.7114C36.0544 11.6356 36.611 10.1421 37.5091 9.43335C37.8506 9.16757 38.0404 9.15491 38.3819 9.48398C39.7481 10.8129 41.4052 11.3951 43.3279 11.142C45.3392 10.8762 47.0722 9.97758 48.6913 8.82584C49.7539 8.07911 50.8544 7.8513 52.0688 8.23099C52.5874 8.38287 52.9922 8.28161 53.2958 7.86395C53.5994 7.43363 53.5615 6.99066 53.2199 6.58565C51.4616 4.48469 49.463 2.70013 46.9963 1.4598C43.467 -0.312102 37.585 1.34589 37.4458 6.67425C37.4332 6.92738 37.3826 7.15519 37.0916 7.28176C36.4718 7.5602 35.9405 7.97786 35.5231 8.50943C35.3586 8.71193 35.2574 8.71193 35.1056 8.50943C34.7515 8.0538 34.3214 7.67411 33.8027 7.43363C33.3474 7.21847 33.1956 6.91472 33.1576 6.42112C33.0438 5.15548 32.6643 3.96577 31.8421 2.9406C30.5897 1.38386 27.0984 0.0422783 24.2649 1.19401C21.52 2.30778 19.4201 4.24421 17.51 6.42112C17.1432 6.83878 16.9661 7.29441 17.295 7.80067C17.6239 8.33224 18.1172 8.35755 18.6738 8.19302C19.787 7.86395 20.8242 8.02849 21.773 8.71193C22.709 9.39538 23.7083 9.95226 24.7709 10.4079C27.5538 11.6103 30.147 11.5596 32.4239 9.29413C32.6137 9.10428 32.7402 9.16757 32.9046 9.26882C33.9039 9.85101 34.6123 11.5849 34.3087 12.6987C34.2328 12.9645 34.0557 12.8759 33.9166 12.8886C32.6263 13.0278 31.3361 13.205 30.0711 13.4961C20.1285 15.7995 12.855 25.1906 13.108 35.417C13.1206 36.0878 13.5254 36.5434 14.1199 36.5434C14.7145 36.5434 15.1319 36.1131 15.1319 35.4297C15.1319 33.8476 15.2837 32.2909 15.6252 30.7468C16.1945 28.1775 17.2317 25.8234 18.737 23.6592C18.8382 23.5073 18.8888 23.2289 19.1924 23.444C20.6471 24.4565 22.0765 25.4944 23.0759 26.9878C23.3668 27.4308 23.5945 27.8991 23.5312 28.456C23.4047 29.5697 23.0632 30.6202 22.5446 31.6074C22.1651 32.3288 21.8109 33.0629 21.4947 33.8223C21.267 34.3539 21.52 34.9487 22.0006 35.1639C22.494 35.3917 23.0759 35.2145 23.3415 34.6829C23.9234 33.5059 24.5432 32.3288 25.0113 31.1012C25.6943 29.3293 25.96 27.5447 24.7709 25.8234C24.0625 24.7856 23.1897 23.9123 22.2283 23.1276C21.6085 22.634 20.9634 22.1657 20.3056 21.6721C21.7603 20.0141 23.4427 18.6725 25.3149 17.5714C25.5931 17.4069 25.7196 17.4322 25.8714 17.7233C26.4154 18.7865 27.0731 19.7863 27.8574 20.6976C29.5019 22.5834 31.4626 23.6086 34.0304 23.0896C35.5863 22.7859 36.9651 22.1404 38.1922 21.1406C38.774 20.6596 39.4192 20.4318 40.1782 20.6723C40.5576 20.7988 40.9498 20.8748 41.3293 20.9887C42.4171 21.3431 43.4797 21.2418 44.5043 20.7609C45.3898 20.3432 46.1361 19.723 46.7686 18.989C47.009 18.7232 47.1481 18.7232 47.4137 18.9383C48.7166 19.9382 49.8931 21.0773 50.943 22.3429C51.1327 22.5834 51.1454 22.7099 50.9303 22.9504C49.8551 24.1401 49.0455 25.507 48.4257 26.9878C48.0715 27.8358 47.692 28.6711 47.1481 29.4305C46.7433 30.0001 46.1994 30.3038 45.491 30.2785C44.732 30.2532 43.973 30.2405 43.2267 30.2026C40.7727 30.0633 38.5337 30.519 36.8513 32.4934C35.561 34.0121 34.7388 35.7587 34.4352 37.7331C34.3087 38.5052 34.625 39.0241 35.2321 39.1127C35.8773 39.2013 36.32 38.8089 36.4465 38.0495C36.6869 36.5941 37.2814 35.2904 38.1669 34.126C39.0523 32.949 40.2414 32.3035 41.7214 32.2909C43.0243 32.2782 44.3272 32.2909 45.6301 32.3035C46.9331 32.3162 47.9324 31.7593 48.704 30.7594C49.4124 29.8355 49.8804 28.785 50.3484 27.7346C50.8671 26.5448 51.5122 25.4184 52.3977 24.3806C53.7639 26.5195 54.5987 28.8103 55.13 31.2151C55.2818 31.9112 55.8004 32.2909 56.3697 32.1516C56.9389 32.0251 57.2678 31.4682 57.1033 30.7721ZM41.2534 3.53545C42.9484 2.63685 44.6688 2.5356 46.4144 3.44686C47.692 4.11765 48.8052 4.97829 49.9057 6.00346C47.7932 6.62362 46.2373 8.24365 44.1501 8.87647C42.6701 9.3321 41.304 9.19288 40.077 8.21833C40.9245 7.86395 41.7088 7.53489 42.493 7.19316C43.2141 6.87675 43.4797 6.34518 43.2267 5.76298C42.9864 5.2061 42.3792 5.02891 41.6708 5.32001C41.3293 5.45923 40.9877 5.62376 40.6335 5.76298C40.3047 5.90221 39.9758 6.02877 39.5836 6.18065C39.7228 5.0036 40.2161 4.09234 41.2534 3.53545ZM28.1357 7.20582C28.92 7.54754 29.7043 7.87661 30.5771 8.24365C29.3374 9.18022 28.0345 9.39538 26.6557 8.93975C25.5805 8.58537 24.5559 8.11708 23.6072 7.48426C22.7217 6.88941 21.8362 6.2819 20.6598 6.05408C22.1524 4.7125 23.5818 3.51014 25.4287 2.99123C27.0605 2.52294 28.5405 2.96591 29.8814 3.88983C30.6277 4.40875 30.906 5.23141 31.0451 6.20596C30.2988 5.88955 29.6284 5.61111 28.9453 5.33267C28.2369 5.04157 27.6297 5.21876 27.3894 5.77564C27.149 6.37049 27.4147 6.90206 28.1357 7.20582ZM44.0489 18.6725C43.3279 19.1408 42.5942 19.2927 41.7341 18.989C40.6841 18.6093 39.5963 18.3688 38.4705 18.6852C37.7494 18.8877 37.1675 19.3433 36.5857 19.7863C35.599 20.533 34.4858 20.9507 33.2462 21.1279C32.0444 21.2924 31.0578 20.9001 30.185 20.1533C29.0971 19.2294 28.3508 18.0271 27.6677 16.7994C27.5285 16.5463 27.5918 16.4703 27.8574 16.3691C30.7162 15.2553 33.6509 14.7617 36.7122 14.9769C39.6216 15.1794 42.3412 15.9767 44.9091 17.3436C45.0356 17.4069 45.1494 17.4955 45.2886 17.5841C44.9091 18.0271 44.5043 18.3814 44.0489 18.6725Z" fill="#058A51" stroke="white" stroke-width="0.6"/>
</svg>
