<svg width="71" height="71" viewBox="0 0 71 71" fill="none" xmlns="http://www.w3.org/2000/svg">
<g clip-path="url(#clip0_219_984)">
<path d="M72 42.5199C71.8719 42.605 71.7438 42.7612 71.6014 42.7754C70.1635 42.9599 68.7256 42.9315 67.3019 42.7896C66.9602 42.7612 66.832 42.4205 66.8463 42.0798C66.8605 41.6965 67.1168 41.4268 67.4585 41.4126C68.754 41.3842 70.0496 41.3984 71.3594 41.3984C71.6441 41.3984 71.7865 41.6681 72 41.7959C72 42.0372 72 42.2785 72 42.5199Z" fill="#058A51"/>
<path d="M53.3496 25.4006C53.3496 25.94 53.3638 26.4794 53.3496 27.0189C53.3354 27.5015 53.2072 27.9415 52.6093 27.9273C52.0398 27.9273 51.8547 27.5441 51.8547 27.0331C51.8547 25.9258 51.8547 24.8328 51.8547 23.7256C51.8547 23.2146 52.0256 22.8171 52.595 22.8171C53.1645 22.8029 53.3496 23.2146 53.3496 23.7114C53.3496 24.265 53.3496 24.8328 53.3496 25.4006Z" fill="#058A51"/>
<path d="M69.5085 32.7963C69.4943 33.0944 69.3661 33.3216 69.0956 33.4777C68.0563 34.0739 67.017 34.6701 65.9777 35.2805C65.5649 35.5218 65.1805 35.4508 64.9384 35.0392C64.6964 34.6417 64.8388 34.2584 65.2517 34.0171C66.3052 33.4067 67.3587 32.7821 68.4265 32.2001C68.939 31.9304 69.4943 32.2569 69.5085 32.7963Z" fill="#058A51"/>
<path d="M45.0779 29.9289C44.7505 29.9431 44.5654 29.7301 44.423 29.4746C43.8393 28.481 43.2699 27.4873 42.6862 26.4937C42.4441 26.0678 42.4299 25.6704 42.8855 25.4007C43.3553 25.1168 43.697 25.3581 43.939 25.7555C44.5369 26.7634 45.1349 27.7712 45.7044 28.8075C46.0318 29.3753 45.6901 29.9431 45.0779 29.9289Z" fill="#058A51"/>
<path d="M62.6463 26.0252C62.6606 26.2381 62.5467 26.4227 62.447 26.6072C61.906 27.5441 61.3508 28.4668 60.824 29.4036C60.5677 29.8579 60.2118 30.0992 59.7278 29.8437C59.2295 29.574 59.2722 29.1339 59.5284 28.6939C60.1121 27.7002 60.6816 26.7066 61.2653 25.7129C61.4504 25.3864 61.7352 25.1593 62.148 25.3154C62.4755 25.429 62.6606 25.6561 62.6463 26.0252Z" fill="#058A51"/>
<path d="M61.1515 33.0234C57.6919 30.1134 53.6202 29.5456 49.2921 30.4399C46.9573 30.9225 44.9499 32.0439 43.2557 33.7332C40.7642 29.9573 36.4931 27.3312 31.9943 27.1041C31.6811 27.0899 31.6668 26.9195 31.6668 26.6924C31.6668 26.1956 31.6526 25.6988 31.6668 25.2019C31.6953 24.5631 31.4817 24.1799 30.7841 24.0947C30.1577 24.0095 29.5455 23.8108 28.9191 23.7256C28.6201 23.6831 28.5062 23.5411 28.3639 23.2998C27.5239 21.9655 27.4669 20.7163 28.6771 19.5665C28.6913 19.5523 28.7055 19.5239 28.7198 19.5097C29.275 18.6864 29.2608 18.5728 28.5774 17.8915C27.6805 16.983 26.7693 16.0887 25.8724 15.1944C25.0751 14.3995 24.9043 14.3001 24.107 15.0241C22.9254 16.0745 21.7721 16.1881 20.4481 15.3648C20.1491 15.1802 19.9213 15.0667 19.8786 14.6692C19.8217 14.0872 19.6366 13.5194 19.5512 12.9374C19.4515 12.256 19.0814 11.9863 18.398 12.0005C17.0313 12.0289 15.6503 12.0289 14.2835 12.0005C13.5432 11.9863 13.1873 12.2986 13.1019 13.0084C13.0734 13.2213 12.9737 13.42 12.988 13.633C13.0165 14.8395 12.3758 15.4357 11.2653 15.8048C10.5819 16.0319 10.0552 16.1313 9.47145 15.6061C9.11553 15.2796 8.64572 15.0525 8.24708 14.7686C7.81997 14.4847 7.46405 14.5414 7.10813 14.8963C6.04036 15.9751 4.97259 17.0398 3.89059 18.0902C3.50619 18.4735 3.47771 18.8425 3.77669 19.2826C4.14685 19.822 4.51702 20.3756 4.87294 20.9292C4.95836 21.057 5.15768 21.1847 5.08649 21.3551C4.78752 22.0932 4.54548 22.8597 4.13261 23.5411C3.90482 23.9244 3.32111 23.8108 2.90824 23.896C2.53808 23.967 2.18215 24.0947 1.79775 24.1373C1.21404 24.2083 1.00049 24.5206 1.00049 25.0884C1.01472 26.5788 1.02896 28.0551 1.00049 29.5456C0.986249 30.1418 1.28524 30.4115 1.812 30.4967C2.40995 30.6102 3.02213 30.6954 3.62008 30.8374C3.87635 30.8941 4.13261 30.9367 4.28921 31.2632C5.21461 33.1937 5.22886 33.1937 4.04719 34.9397C3.96177 35.0533 3.90482 35.181 3.8194 35.2946C3.46348 35.7347 3.50619 36.1463 3.90482 36.5438C4.95835 37.5942 6.02612 38.6446 7.06541 39.6951C7.46404 40.1067 7.87692 40.1067 8.3325 39.7944C8.8735 39.4254 9.42874 39.0563 9.98398 38.7014C10.1263 38.6021 10.2545 38.4601 10.4823 38.5595C11.6497 39.0563 13.1303 39.2124 13.0022 41.0294C12.988 41.2707 13.1019 41.5404 13.1446 41.7817C13.2442 42.3211 13.529 42.6051 14.1127 42.5909C14.7249 42.5625 15.3371 42.5909 15.9635 42.5767C16.2625 42.5625 16.3479 42.676 16.3906 42.9741C16.7608 46.679 18.2841 49.8161 21.0176 52.3712C21.1457 52.499 21.4732 52.6126 21.2596 52.8539C20.6332 53.5636 20.7044 54.8412 19.4515 55.0541C19.3234 55.0683 19.1953 55.267 19.1241 55.3948C17.6435 57.9499 16.1201 60.505 14.6964 63.0885C13.6998 64.9055 14.611 67.0205 16.5472 67.7587C16.7323 67.8296 16.9885 67.7587 17.0882 68C17.3729 68 17.6577 68 17.9424 68C19.0671 67.7445 20.0353 67.2477 20.6332 66.1972C22.0427 63.7557 23.4521 61.3141 24.8758 58.8726C25.0039 58.6455 25.189 58.3758 25.0466 58.1486C24.7761 57.7086 25.0467 57.3963 25.2317 57.0698C25.4311 56.7149 25.6731 56.3884 25.8297 56.0336C26.0432 55.5651 26.271 55.48 26.7978 55.6361C29.7733 56.5304 32.7488 56.4594 35.6959 55.4516C38.6429 54.4437 41.0205 52.6551 42.8855 50.1284C44.0814 52.0022 45.3058 53.8191 45.861 55.9768C46.3451 57.8363 46.1885 59.7243 46.2169 61.598C46.2312 63.5427 46.217 63.5569 48.1532 63.5428C48.6515 63.5428 48.865 63.6847 49.0359 64.1673C49.5911 65.7146 50.787 66.5663 52.3958 66.694C53.9191 66.8076 55.3001 66.1972 55.9265 64.8061C56.4248 63.6989 57.0228 63.4008 58.1333 63.5286C58.8451 63.6137 59.0729 63.2872 59.0871 62.5349C59.1014 61.1722 59.0871 59.7953 59.1156 58.4325C59.1441 56.6865 59.6139 55.0541 60.4112 53.5068C61.0661 52.2293 61.8491 51.0227 62.6321 49.8303C63.8992 47.8714 64.8531 45.8131 65.1378 43.471C65.5792 39.2834 64.369 35.7347 61.1515 33.0234ZM16.3194 40.7455C16.3194 41.0152 16.2055 41.143 15.935 41.1146C15.9065 41.1146 15.8923 41.1146 15.8638 41.1146C14.4686 41.1997 14.3832 41.2139 14.2408 39.8512C14.1127 38.744 13.6856 38.0626 12.5751 37.8355C12.5324 37.8213 12.4897 37.7929 12.447 37.7787C10.9379 36.8561 9.49993 36.7283 8.16166 38.1194C7.91964 38.3749 7.70608 38.304 7.44982 38.0485C6.82339 37.3813 6.16849 36.7283 5.48512 36.1037C5.21461 35.8482 5.20039 35.6637 5.44242 35.4082C5.47089 35.3798 5.48513 35.323 5.5136 35.2946C6.7095 34.1306 6.66678 32.9098 5.92646 31.4477C5.02953 29.6734 5.1292 29.5882 3.10756 29.2759C2.49537 29.1765 2.33877 28.9636 2.38148 28.3816C2.43843 27.5867 2.40995 26.7776 2.39571 25.9827C2.38147 25.6278 2.40994 25.4007 2.86552 25.4007C4.68784 25.4149 5.52782 24.3928 6.14001 22.7604C6.59559 21.5396 6.60983 20.6453 5.76985 19.6375C5.12919 18.8709 5.18614 18.8284 5.92646 18.0902C6.15425 17.8631 6.39628 17.6218 6.62407 17.3946C7.7915 16.2448 7.81997 16.2023 9.17248 17.1817C9.85585 17.6785 10.4538 17.7495 11.1799 17.3521C11.6497 17.0966 12.1622 16.8836 12.6748 16.7417C13.6713 16.472 14.0985 15.8616 14.2124 14.8395C14.369 13.491 14.4259 13.491 15.7784 13.491C16.3479 13.491 16.9174 13.5336 17.4868 13.4768C18.0421 13.42 18.2841 13.6614 18.2699 14.144C18.2556 15.7764 19.1668 16.5571 20.6474 17.0398C22.9253 17.7921 22.1138 18.0334 24.1782 16.6281C24.705 16.2732 24.9755 16.33 25.3741 16.7701C25.9293 17.3805 26.5273 17.9625 27.1252 18.5303C27.353 18.7432 27.4384 18.9135 27.1822 19.1548C27.1679 19.169 27.1537 19.1974 27.1395 19.2116C25.8154 20.4892 26.0005 21.8093 26.7266 23.385C27.2676 24.549 27.8656 25.1877 29.1469 25.3013C30.2289 25.4007 30.3855 25.7555 30.1862 26.8344C30.1435 27.0331 30.0723 27.1183 29.873 27.1325C28.0364 27.2034 26.3137 27.7286 24.5341 28.5094C24.8046 25.2445 23.7653 22.59 21.1457 20.6453C19.4515 19.382 17.5011 18.8567 15.4083 19.1123C10.5819 19.7084 7.83422 23.7398 8.00506 27.7144C8.20438 32.1291 12.1622 36.1889 17.615 35.5075C16.8889 37.1826 16.3621 38.9143 16.3194 40.7455ZM22.9538 28.8784C22.8399 29.3185 22.6264 29.6166 22.2562 29.8721C21.0603 30.6954 19.9925 31.6891 19.2095 32.9098C18.6827 33.7331 17.9567 33.9603 17.0882 34.0312C16.8319 34.0454 16.5614 34.0312 16.3052 34.0312C12.8314 34.0596 9.89857 31.4903 9.49994 28.1119C9.08707 24.6341 11.3934 21.3835 14.853 20.6169C19.7078 19.5239 24.164 24.0805 22.9538 28.8784ZM23.1389 58.8726C21.8433 61.087 20.5763 63.3014 19.2807 65.5159C18.9105 66.1404 18.3411 66.4953 17.6434 66.4527C16.1343 66.4385 15.2659 64.9339 15.992 63.6137C16.9886 61.8251 18.0278 60.065 19.0529 58.3048C19.3092 57.8505 19.5939 57.4247 19.8359 56.9562C19.9783 56.6581 20.1349 56.6723 20.3769 56.8285C21.2454 57.3537 22.1138 57.8647 23.0108 58.3474C23.267 58.5035 23.2813 58.6313 23.1389 58.8726ZM24.1924 55.849C24.0216 56.1329 23.865 56.4168 23.7084 56.7007C23.6514 56.8001 23.566 56.8711 23.4948 56.9562C23.1816 56.7717 22.8969 56.6156 22.6121 56.4452C21.2454 55.6645 21.2739 55.6787 22.0284 54.2734C22.3416 53.6914 22.5979 53.4501 23.1531 53.9895C23.3382 54.1598 23.5803 54.2592 23.808 54.3869C24.7477 54.9122 24.7477 54.9122 24.1924 55.849ZM30.9692 54.7844C23.5802 54.7844 17.7146 48.8935 17.7431 41.4836C17.7716 34.2726 23.7226 28.481 31.0689 28.4952C38.23 28.5094 44.1241 34.4571 44.1099 41.6398C44.0814 48.8651 38.1731 54.7844 30.9692 54.7844ZM54.7591 63.926C54.3889 64.7493 53.4066 65.2745 52.3531 65.1894C51.385 65.1184 50.6304 64.508 50.3741 63.5286C51.7693 63.5286 53.1503 63.5286 54.5455 63.5286C54.8587 63.5286 54.873 63.6563 54.7591 63.926ZM55.8696 62.0665C54.7876 62.0665 53.6913 62.0665 52.6093 62.0665C51.1429 62.0665 49.6765 62.0381 48.2101 62.0807C47.7261 62.0948 47.5837 61.9387 47.6406 61.4845C47.7118 60.9309 47.3986 60.1927 47.7688 59.8804C48.082 59.6107 48.8081 59.7811 49.3491 59.7811C51.8832 59.7811 54.4032 59.7953 56.9373 59.7669C57.4499 59.7669 57.5495 59.9088 57.5495 60.3914C57.5211 62.0665 57.5495 62.0665 55.8696 62.0665ZM62.8457 46.2106C62.1765 47.8856 61.1088 49.3335 60.1691 50.8382C59.0159 52.6835 58.0478 54.5999 57.7204 56.7859C57.7204 56.8143 57.7061 56.8285 57.7061 56.8569C57.5922 57.3395 57.8343 58.0351 57.4499 58.2622C57.037 58.5035 56.3963 58.3474 55.8553 58.3474C55.1862 58.3474 54.5313 58.3332 53.8622 58.3616C53.4778 58.3758 53.3212 58.2906 53.3212 57.8647C53.3354 55.1819 53.3354 52.4848 53.3212 49.8019C53.3212 49.518 53.4351 49.3193 53.6201 49.1206C54.4174 48.2547 55.1862 47.3604 55.9835 46.4803C56.3394 46.0828 56.5387 45.6712 56.0547 45.2595C55.5991 44.8763 55.2289 45.1318 54.9015 45.5009C54.1469 46.3526 53.3924 47.1901 52.5951 48.0843C51.8121 47.2043 51.0717 46.3809 50.3314 45.5434C49.9897 45.1602 49.6196 44.8337 49.1355 45.2595C48.6087 45.6996 48.8792 46.1254 49.2494 46.5229C50.0182 47.3604 50.7585 48.2263 51.5273 49.0496C51.7693 49.3051 51.869 49.5748 51.8548 49.9297C51.8405 52.5416 51.8405 55.1677 51.8548 57.7796C51.8548 58.2622 51.7124 58.3616 51.2568 58.3616C50.189 58.3332 49.1213 58.3474 48.0677 58.3616C47.7688 58.3616 47.5837 58.319 47.5694 57.9499C47.4698 55.2954 46.3735 53.01 45.0068 50.8098C44.6082 50.171 44.0245 49.589 43.8394 48.8935C43.6543 48.1695 44.3519 47.5449 44.5939 46.8636C45.9892 43.0593 45.8895 39.3118 44.238 35.6211C44.0245 35.1669 44.0956 34.9255 44.4373 34.6132C46.9857 32.2001 50.0609 31.3626 53.4778 31.5613C56.1258 31.7174 58.5176 32.555 60.4823 34.3719C63.7711 37.3813 64.6253 41.8101 62.8457 46.2106Z" fill="#058A51"/>
<path d="M30.9408 31.0928C25.1748 31.0502 20.32 35.8765 20.3343 41.6397C20.3485 47.4313 25.0894 52.1441 30.8696 52.1441C36.7067 52.1441 41.4476 47.4739 41.4619 41.6965C41.4761 35.8623 36.7779 31.1354 30.9408 31.0928ZM30.8411 50.7104C25.8297 50.682 21.8149 46.5938 21.8291 41.5546C21.8434 36.5295 25.9009 32.5407 30.9692 32.5691C35.9806 32.5975 40.0666 36.6999 40.0097 41.6823C39.9812 46.6648 35.824 50.7388 30.8411 50.7104Z" fill="#058A51"/>
</g>
<defs>
<clipPath id="clip0_219_984">
<rect width="71" height="71" fill="white"/>
</clipPath>
</defs>
</svg>
